<svg width="100" height="100" viewBox="0 0 100 100" fill="none" xmlns="http://www.w3.org/2000/svg">
<path d="M64.6998 97.6C27.5998 97.3 -15.8002 43.3 15.8998 11.5C16.9998 10.4 18.1998 9.30001 19.3998 8.20001C21.9998 6.10001 25.2998 5.00001 28.6998 5.10001C32.0998 5.20001 35.2998 6.60001 37.6998 9.00001L43.7998 15.4C50.3998 21.9 48.0998 33.6 39.3998 36.9C36.6998 38 34.9998 39 34.5998 39.3C31.1998 42.7 29.0998 48.3 41.6998 60.9C45.7998 65 51.7998 70.4 57.1998 70.4C59.3998 70.4 61.3998 69.5 63.2998 67.6C63.5998 67.2 64.3998 65.8 65.4998 63C68.7998 54.3 80.4998 51.9 86.9998 58.6L93.2998 64.7C95.6998 67.1 97.0998 70.3 97.1998 73.6C97.2998 77 96.1998 80.3 94.0998 82.8C93.0998 83.9 92.0998 85.1 91.0998 86.1C83.6998 93.8 74.5998 97.6 64.6998 97.6ZM28.0998 12.3C26.6998 12.3 25.1998 12.8 23.9998 13.8C22.8998 14.7 21.8998 15.6 20.9998 16.6C4.09983 33.8 13.3998 57.3 29.5998 73.4C45.6998 89.4 69.0998 98.2 85.9998 81.2C86.8998 80.3 87.7998 79.3 88.5998 78.3C90.6998 75.8 90.4998 72.2 88.1998 69.9L81.9998 63.8C80.5998 62.4 78.5998 61.8 76.5998 62.2C74.5998 62.6 72.9998 63.9 72.2998 65.8C71.7998 67.1 69.9998 71.3 68.5998 72.7C65.2998 76 61.4998 77.7 57.2998 77.7C49.2998 77.7 42.0998 71.5 36.6998 66C28.4998 58.1 18.9998 44.7 29.6998 34.1C31.1998 32.6 35.4998 30.7 36.7998 30.2C38.6998 29.4 39.9998 27.9 40.3998 25.9C40.7998 23.9 40.1998 21.9 38.7998 20.5L32.6998 14.1C31.2998 12.9 29.6998 12.3 28.0998 12.3ZM93.6998 48.3C91.8998 48.3 90.2998 46.9 90.0998 45C88.4998 27.6 74.7998 13.9 57.3998 12.3C55.3998 12.1 53.8998 10.4 54.0998 8.40001C54.2998 6.40001 55.9998 4.90001 57.9998 5.10001C78.3998 6.60001 95.7998 24 97.2998 44.4C97.4998 46.4 95.9998 48.1 93.9998 48.3C93.9998 48.3 93.7998 48.3 93.6998 48.3ZM65.5998 48.3C67.4998 47.7 68.4998 45.6 67.8998 43.7C66.4998 39.4 63.1998 36 58.9998 34.6C57.0998 33.9 55.0998 34.9 54.3998 36.8C53.6998 38.7 54.6998 40.7 56.5998 41.4C58.6998 42.1 60.2998 43.9 61.0998 46C61.5998 47.5 62.9998 48.5 64.4998 48.5C64.7998 48.5 65.1998 48.4 65.5998 48.3ZM79.7998 48.3C81.7998 48 83.0998 46.2 82.8998 44.2C80.9998 31.5 70.8998 21.4 58.2998 19.6C53.4998 19.1 52.5998 25.9 57.2998 26.8C66.7998 28.2 74.3998 35.7 75.6998 45.2C75.9998 47 77.4998 48.3 79.2998 48.3C79.3998 48.3 79.5998 48.3 79.7998 48.3Z" fill="#254A96"/>
</svg>
