<svg width="100" height="100" viewBox="0 0 100 100" fill="none" xmlns="http://www.w3.org/2000/svg">
<path d="M9.09989 95.5C8.59989 95.5 8.19989 95.4 7.69989 95.2C6.39989 94.6 5.49989 93.4 5.49989 91.9V50.4C5.19989 9.8 54.6999 -10.9 83.2999 17.9C111.6 46.7 91.1999 95.5 50.6999 95.5C43.4999 95.5 36.6999 93.9 30.3999 90.7C24.3999 87.7 16.9999 88.9 12.1999 93.7L11.4999 94.4C10.8999 95.1 9.99989 95.5 9.09989 95.5ZM23.4999 82C26.9999 82 30.3999 82.8 33.6999 84.4C38.9999 87.1 44.7999 88.4 50.8999 88.4C84.8999 88.4 102.3 46.9 78.3999 22.9C53.9999 -1.4 12.3999 16 12.5999 50.4V84.7C15.9999 82.9 19.6999 82 23.4999 82ZM40.2999 50C40.2999 52.5 38.2999 54.4 35.8999 54.4C29.9999 54.2 29.9999 45.7 35.8999 45.5C38.2999 45.6 40.2999 47.5 40.2999 50ZM51.1999 45.6C48.6999 45.6 46.7999 47.6 46.7999 50C46.9999 55.9 55.4999 55.9 55.6999 50C55.5999 47.5 53.5999 45.6 51.1999 45.6ZM66.4999 45.6C63.9999 45.6 62.0999 47.6 62.0999 50C62.2999 55.9 70.7999 55.9 70.9999 50C70.8999 47.5 68.8999 45.6 66.4999 45.6Z" fill="#254A96"/>
</svg>
