<svg width="296" height="296" viewBox="0 0 296 296" fill="none" xmlns="http://www.w3.org/2000/svg">
<g clip-path="url(#clip0_1_6)">
<path d="M161.904 33.333H28.571V100H161.904V33.333ZM152.381 90.476H38.095V42.857H152.381V90.476Z" fill="#254A96"/>
<path d="M95.238 133.333C66.357 133.333 42.857 156.833 42.857 185.714C42.857 214.595 66.357 238.095 95.238 238.095C124.119 238.095 147.619 214.595 147.619 185.714C147.619 156.833 124.119 133.333 95.238 133.333ZM56.338 203.595C53.824 198.143 52.381 192.1 52.381 185.714C52.381 162.081 71.605 142.857 95.238 142.857C101.624 142.857 107.667 144.3 113.119 146.814L56.338 203.595ZM61.433 211.967L121.485 151.915C124.309 154.11 126.842 156.644 129.037 159.467L68.985 219.519C66.167 217.324 63.629 214.786 61.433 211.967ZM138.095 185.714C138.095 209.348 118.871 228.571 95.238 228.571C88.852 228.571 82.809 227.128 77.357 224.614L134.138 167.833C136.652 173.285 138.095 179.328 138.095 185.714Z" fill="#254A96"/>
<path d="M100 119.048H90.476V128.572H100V119.048Z" fill="#254A96"/>
<path d="M100 242.857H90.476V252.381H100V242.857Z" fill="#254A96"/>
<path d="M161.905 180.952H152.381V190.476H161.905V180.952Z" fill="#254A96"/>
<path d="M38.095 180.952H28.571V190.476H38.095V180.952Z" fill="#254A96"/>
<path d="M139.491 150.986L146.226 144.252L136.703 134.729L129.969 141.464L139.491 150.986Z" fill="#254A96"/>
<path d="M44.2512 227.179L53.7738 236.701L60.5082 229.967L50.9857 220.444L44.2512 227.179Z" fill="#254A96"/>
<path d="M129.966 229.968L136.701 236.702L146.223 227.18L139.489 220.445L129.966 229.968Z" fill="#254A96"/>
<path d="M50.9881 150.986L60.5106 141.464L53.7762 134.729L44.2537 144.252L50.9881 150.986Z" fill="#254A96"/>
<path d="M57.143 52.381H47.619V80.952H57.143V52.381Z" fill="#254A96"/>
<path d="M76.191 52.381H66.667V80.952H76.191V52.381Z" fill="#254A96"/>
<path d="M142.857 52.381H133.333V61.905H142.857V52.381Z" fill="#254A96"/>
<path d="M95.238 52.381H85.714V61.905H95.238V52.381Z" fill="#254A96"/>
<path d="M142.857 71.429H133.333V80.953H142.857V71.429Z" fill="#254A96"/>
<path d="M295.238 66.667H290.476V33.333H280.952V0H271.428V33.333H261.904V66.666H257.142V76.19H261.904V114.285C261.904 120.485 265.899 125.723 271.428 127.695V219.047C271.428 250.557 245.795 276.19 214.285 276.19H190.475V247.619H200C218.376 247.619 233.333 232.662 233.333 214.286V127.696C238.862 125.725 242.857 120.486 242.857 114.286V76.19H247.619V66.666H242.857V33.333H233.333V0H223.809V33.333H214.285V66.666H209.523V76.19H214.285V114.285C214.285 120.485 218.28 125.723 223.809 127.695V214.285C223.809 227.414 213.128 238.095 199.999 238.095H190.475V14.286C190.476 6.41 184.067 0 176.19 0H14.286C6.41 0 0 6.41 0 14.286V280.953C0 288.829 6.41 295.239 14.286 295.239H176.19C182.39 295.239 187.628 291.244 189.6 285.715H214.286C251.048 285.715 280.953 255.81 280.953 219.048V127.696C286.482 125.725 290.477 120.486 290.477 114.286V76.19H295.239L295.238 66.667ZM223.81 42.857H233.334V66.667H223.81V42.857ZM223.809 76.19H233.333V114.285C233.333 116.914 231.2 119.047 228.571 119.047C225.942 119.047 223.809 116.914 223.809 114.285V76.19ZM180.952 280.952C180.952 283.581 178.819 285.714 176.19 285.714H14.286C11.657 285.714 9.524 283.581 9.524 280.952V14.286C9.524 11.657 11.657 9.524 14.286 9.524H176.19C178.819 9.524 180.952 11.657 180.952 14.286V280.952ZM280.952 114.286C280.952 116.915 278.819 119.048 276.19 119.048C273.561 119.048 271.428 116.915 271.428 114.286V76.19H280.952V114.286ZM280.953 66.667H271.429V42.857H280.953V66.667Z" fill="#254A96"/>
<path d="M38.096 261.905H19.048V271.429H38.096V261.905Z" fill="#254A96"/>
<path d="M171.429 261.905H152.381V271.429H171.429V261.905Z" fill="#254A96"/>
</g>
<defs>
<clipPath id="clip0_1_6">
<rect width="295.239" height="295.239" fill="white"/>
</clipPath>
</defs>
</svg>
