<svg width="100" height="100" viewBox="0 0 100 100" fill="none" xmlns="http://www.w3.org/2000/svg">
<path d="M44 70.9C40.1 70.9 36.2 69.7 32.9 67.2L21.2 58.4C19.6 57.2 19.3 55 20.5 53.4C21.7 51.8 23.9 51.5 25.5 52.7L37.2 61.5C41.2 64.5 46.8 64.5 50.9 61.5L62.6 52.7C64.2 51.5 66.4 51.8 67.6 53.4C68.8 55 68.5 57.2 66.9 58.4L55.2 67.2C51.8 69.6 47.9 70.9 44 70.9ZM82.5 70.2V51.4C82.5 39.6 72.9 30 61.1 30H26.9C15.1 30 5.5 39.6 5.5 51.4V70.1C5.5 81.9 15.1 91.5 26.9 91.5H61.1C72.9 91.5 82.5 81.9 82.5 70.2ZM61.1 37.2C69 37.2 75.4 43.6 75.4 51.5V70.2C75.4 78.1 69 84.5 61.1 84.5H26.9C19 84.5 12.6 78.1 12.6 70.2V51.4C12.6 43.5 19 37.1 26.9 37.1H61.1V37.2ZM96.8 57.3V29.5C96.8 17.7 87.2 8.10001 75.4 8.10001H41.2C34.2 8.10001 27.6 11.5 23.6 17.3C22.5 18.9 22.9 21.1 24.5 22.3C26.1 23.4 28.3 23 29.5 21.4C32.2 17.6 36.6 15.3 41.2 15.3H75.4C83.3 15.3 89.7 21.7 89.7 29.6V57.4C89.7 59.4 91.3 61 93.3 61C95.3 61 96.8 59.3 96.8 57.3Z" fill="#254A96"/>
</svg>
