<svg width="68" height="68" viewBox="0 0 68 68" fill="none" xmlns="http://www.w3.org/2000/svg">
<path d="M55.168 43.686C55.1727 46.5897 54.5914 49.4645 53.4586 52.1382C52.3259 54.8119 50.6652 57.2294 48.576 59.246C44.5369 63.1795 39.1199 65.3777 33.482 65.371C27.606 65.371 22.287 63.031 18.377 59.245C16.2878 57.2284 14.6271 54.8108 13.4944 52.1371C12.3617 49.4635 11.7803 46.5887 11.785 43.685C11.785 31.706 21.503 21.989 33.482 21.989C45.462 21.989 55.168 31.706 55.168 43.686Z" fill="#B3CCFF"/>
<path d="M33.478 43.846C37.3683 43.846 40.522 40.6923 40.522 36.802C40.522 32.9117 37.3683 29.758 33.478 29.758C29.5877 29.758 26.434 32.9117 26.434 36.802C26.434 40.6923 29.5877 43.846 33.478 43.846Z" fill="white"/>
<path d="M18.402 16.975L19.084 20.928L15.533 19.062L11.981 20.928L12.663 16.975L9.789 14.176L13.757 13.599L15.533 10.003L17.308 13.599L21.276 14.176L18.402 16.975ZM37.562 13.18L38.522 18.74L33.526 16.115L28.53 18.74L29.49 13.18L25.447 9.242L31.028 8.431L33.526 3.372L36.024 8.431L41.605 9.242L37.562 13.18ZM55.294 16.975L55.976 20.928L52.424 19.062L48.873 20.928L49.555 16.975L46.681 14.176L50.649 13.599L52.424 10.003L54.2 13.599L58.168 14.176L55.294 16.975Z" fill="#B3CCFF"/>
<path d="M45.752 51.75C42.369 49.098 38.121 47.523 33.484 47.523C28.847 47.523 24.588 49.098 21.204 51.749C20.5417 52.2682 20.0067 52.9318 19.6396 53.6891C19.2726 54.4464 19.0832 55.2774 19.086 56.119V59.871C22.921 63.276 27.946 65.371 33.482 65.371C39.019 65.371 44.045 63.275 47.871 59.869V56.119C47.8737 55.2774 47.6842 54.4462 47.317 53.6889C46.9498 52.9316 46.4145 52.2691 45.752 51.75Z" fill="white"/>
<path d="M66 64.372H42.744C49.601 61.294 54.869 54.756 55.955 46.796C55.9727 46.6659 55.9647 46.5335 55.9312 46.4065C55.8978 46.2795 55.8397 46.1603 55.7602 46.0557C55.6807 45.9512 55.5814 45.8633 55.468 45.7971C55.3545 45.7309 55.2291 45.6877 55.099 45.67C54.9689 45.6523 54.8365 45.6603 54.7095 45.6938C54.5825 45.7272 54.4633 45.7853 54.3587 45.8648C54.2542 45.9443 54.1663 46.0436 54.1001 46.157C54.0339 46.2705 53.9907 46.3959 53.973 46.526C53.418 50.591 51.617 54.427 48.871 57.483V56.12C48.871 54.108 47.936 52.18 46.367 50.961C42.662 48.058 38.207 46.523 33.484 46.523C28.753 46.523 24.294 48.058 20.592 50.959C19.022 52.177 18.086 54.106 18.086 56.119V57.47C14.6621 53.6959 12.7719 48.7787 12.786 43.683C12.786 32.271 22.071 22.986 33.483 22.986C43.765 22.986 52.574 30.656 53.973 40.83C53.9894 40.9608 54.0318 41.087 54.0978 41.2012C54.1637 41.3154 54.2518 41.4152 54.357 41.4948C54.4621 41.5744 54.5821 41.6321 54.7099 41.6646C54.8376 41.6971 54.9706 41.7037 55.101 41.684C55.2311 41.6662 55.3564 41.6229 55.4697 41.5566C55.583 41.4902 55.6821 41.4022 55.7614 41.2975C55.8406 41.1928 55.8984 41.0735 55.9315 40.9465C55.9645 40.8194 55.9722 40.687 55.954 40.557C54.42 29.4 44.76 20.986 33.484 20.986C20.968 20.986 10.786 31.168 10.786 43.683C10.786 52.871 16.186 60.769 24.222 64.372H2C1.73478 64.372 1.48043 64.4774 1.29289 64.6649C1.10536 64.8524 1 65.1068 1 65.372C1 65.6372 1.10536 65.8916 1.29289 66.0791C1.48043 66.2666 1.73478 66.372 2 66.372H66C66.2652 66.372 66.5196 66.2666 66.7071 66.0791C66.8946 65.8916 67 65.6372 67 65.372C67 65.1068 66.8946 64.8524 66.7071 64.6649C66.5196 64.4774 66.2652 64.372 66 64.372ZM20.086 56.12C20.086 54.72 20.733 53.382 21.822 52.537C25.172 49.911 29.205 48.523 33.484 48.523C37.756 48.523 41.785 49.911 45.134 52.537C45.137 52.537 45.138 52.539 45.139 52.54C46.224 53.381 46.871 54.72 46.871 56.12V59.414C43.1372 62.6011 38.3921 64.3573 33.483 64.369C28.678 64.369 23.873 62.638 20.086 59.415V56.12Z" fill="#254A96"/>
<path d="M25.435 36.801C25.435 41.237 29.043 44.845 33.479 44.845C37.915 44.845 41.522 41.237 41.522 36.801C41.522 32.365 37.914 28.757 33.478 28.757C29.042 28.757 25.435 32.366 25.435 36.801ZM39.523 36.801C39.523 40.134 36.812 42.845 33.479 42.845C30.146 42.845 27.435 40.135 27.435 36.801C27.435 33.467 30.145 30.757 33.479 30.757C36.813 30.757 39.523 33.468 39.523 36.801ZM11.588 17.324L10.996 20.758C10.964 20.9419 10.9842 21.1312 11.0543 21.3042C11.1243 21.4773 11.2415 21.6272 11.3925 21.737C11.5434 21.8469 11.7222 21.9122 11.9084 21.9256C12.0946 21.9391 12.2808 21.9 12.446 21.813L15.532 20.193L18.619 21.813C18.7839 21.9006 18.9702 21.94 19.1564 21.9265C19.3427 21.9131 19.5214 21.8474 19.672 21.737C19.823 21.6271 19.9402 21.4772 20.0103 21.3042C20.0805 21.1312 20.1008 20.942 20.069 20.758L19.478 17.324L21.974 14.894C22.108 14.7638 22.2029 14.5987 22.2478 14.4174C22.2928 14.236 22.286 14.0457 22.2283 13.8681C22.1707 13.6904 22.0644 13.5324 21.9215 13.412C21.7786 13.2916 21.6049 13.2137 21.42 13.187L17.973 12.685L16.429 9.56C16.093 8.876 14.972 8.876 14.636 9.56L13.093 12.685L9.645 13.187C9.46038 13.214 9.287 13.2921 9.14444 13.4124C9.00188 13.5328 8.89584 13.6907 8.83831 13.8681C8.78078 14.0456 8.77405 14.2357 8.81888 14.4168C8.86371 14.5979 8.95832 14.7628 9.092 14.893L11.588 17.324ZM13.9 14.589C14.0605 14.5659 14.213 14.504 14.3442 14.4087C14.4754 14.3133 14.5814 14.1875 14.653 14.042L15.533 12.262L16.413 14.042C16.558 14.337 16.839 14.542 17.165 14.589L19.127 14.875L17.705 16.258C17.469 16.489 17.361 16.82 17.417 17.145L17.754 19.1L15.997 18.177C15.8538 18.1008 15.6942 18.061 15.532 18.061C15.3698 18.061 15.2102 18.1008 15.067 18.177L13.311 19.099L13.648 17.145C13.6754 16.985 13.6635 16.8208 13.6134 16.6665C13.5632 16.5121 13.4762 16.3723 13.36 16.259L11.938 14.875L13.9 14.589ZM28.415 13.528L27.545 18.57C27.513 18.7539 27.5332 18.9432 27.6033 19.1162C27.6733 19.2893 27.7905 19.4392 27.9415 19.549C28.0924 19.6589 28.2712 19.7242 28.4574 19.7376C28.6436 19.7511 28.8298 19.712 28.995 19.625L33.525 17.245L38.057 19.625C38.2222 19.7116 38.4083 19.7503 38.5944 19.7367C38.7804 19.7231 38.959 19.6578 39.1098 19.548C39.2606 19.4383 39.3778 19.2885 39.448 19.1157C39.5182 18.9429 39.5386 18.7538 39.507 18.57L38.637 13.528L42.303 9.958C42.4364 9.82774 42.5307 9.66278 42.5754 9.48174C42.62 9.3007 42.6131 9.1108 42.5555 8.93347C42.4978 8.75614 42.3918 8.59845 42.2493 8.47821C42.1068 8.35797 41.9335 8.27996 41.749 8.253L36.688 7.516L34.422 2.929C34.086 2.246 32.965 2.246 32.629 2.929L30.364 7.516L25.303 8.253C25.1183 8.27982 24.9448 8.3578 24.8021 8.4781C24.6594 8.59841 24.5532 8.75625 24.4956 8.93376C24.438 9.11127 24.4311 9.30137 24.4759 9.48256C24.5207 9.66374 24.6153 9.82878 24.749 9.959L28.415 13.528ZM31.172 9.42C31.3325 9.39686 31.485 9.33496 31.6162 9.23965C31.7474 9.14434 31.8534 9.01849 31.925 8.873L33.525 5.631L35.127 8.873C35.272 9.168 35.554 9.373 35.88 9.42L39.455 9.94L36.865 12.463C36.7485 12.5761 36.6613 12.7159 36.611 12.8703C36.5606 13.0246 36.5486 13.189 36.576 13.349L37.191 16.911L33.991 15.231C33.8478 15.1548 33.6882 15.115 33.526 15.115C33.3638 15.115 33.2042 15.1548 33.061 15.231L29.861 16.911L30.476 13.349C30.5035 13.189 30.4917 13.0248 30.4415 12.8704C30.3913 12.716 30.3043 12.5762 30.188 12.463L27.597 9.94L31.172 9.42ZM48.48 17.324L47.888 20.758C47.856 20.9419 47.8762 21.1312 47.9463 21.3042C48.0163 21.4773 48.1335 21.6272 48.2845 21.737C48.4354 21.8469 48.6142 21.9122 48.8004 21.9256C48.9866 21.9391 49.1728 21.9 49.338 21.813L52.425 20.193L55.511 21.813C55.6762 21.8996 55.8623 21.9383 56.0484 21.9247C56.2344 21.9111 56.413 21.8458 56.5638 21.736C56.7146 21.6263 56.8318 21.4765 56.902 21.3037C56.9721 21.1309 56.9926 20.9418 56.961 20.758L56.369 17.324L58.865 14.894C58.999 14.7639 59.0938 14.5989 59.1388 14.4176C59.1839 14.2363 59.1772 14.0461 59.1196 13.8684C59.0621 13.6908 58.9559 13.5328 58.8132 13.4123C58.6704 13.2919 58.4968 13.2138 58.312 13.187L54.864 12.685L53.321 9.56C53.2389 9.39218 53.1114 9.25077 52.9529 9.15186C52.7944 9.05295 52.6113 9.00051 52.4245 9.00051C52.2377 9.00051 52.0546 9.05295 51.8961 9.15186C51.7376 9.25077 51.6101 9.39218 51.528 9.56L49.984 12.685L46.537 13.187C46.3523 13.2138 46.1788 13.2918 46.0361 13.4121C45.8934 13.5324 45.7872 13.6902 45.7296 13.8678C45.672 14.0453 45.6651 14.2354 45.7099 14.4166C45.7547 14.5977 45.8493 14.7628 45.983 14.893L48.48 17.324ZM50.792 14.589C50.9525 14.5659 51.105 14.504 51.2362 14.4087C51.3674 14.3133 51.4734 14.1875 51.545 14.042L52.425 12.262L53.304 14.042C53.449 14.337 53.73 14.542 54.057 14.589L56.018 14.875L54.597 16.258C54.36 16.489 54.253 16.82 54.308 17.145L54.645 19.099L52.889 18.177C52.7458 18.1009 52.5861 18.0611 52.424 18.0611C52.2619 18.0611 52.1022 18.1009 51.959 18.177L50.203 19.1L50.54 17.145C50.5676 16.9849 50.5558 16.8205 50.5056 16.6659C50.4554 16.5114 50.3684 16.3714 50.252 16.258L48.83 14.875L50.792 14.589Z" fill="#2D346A"/>
</svg>
