<svg width="96" height="96" viewBox="0 0 96 96" fill="none" xmlns="http://www.w3.org/2000/svg">
<path d="M78.9 39.8C77.9 39 76.7 38.9 75.6 39.5L71.5 41.7C70.8 42.1 70.4 42.8 70.3 43.6C70.3 43.7 70.3 43.8 70.3 43.9L68.3 45C65.5 46.5 62.6 46.8 59.5 45.8C59 45.6 58.4 45.5 57.8 45.4C58.2 44.3 58.4 43.1 58.4 41.9C58.4 41.4 58.4 41 58.3 40.6H62.4C64.7 40.6 66.5 38.8 66.5 36.5V22C66.7 21.6 66.8 21.2 66.9 20.8L67.7 16.2C67.9 15.3 67.6 14.4 67 13.7C66.4 13 65.5 12.6 64.6 12.6H56V11C56 9.4 54.7 8 53 8H42.9C41.3 8 39.9 9.3 39.9 11V12.6H31.3C30.4 12.6 29.5 13 28.9 13.7C28.3 14.4 28.1 15.3 28.2 16.2L29 20.8C29.1 21.2 29.2 21.6 29.4 22V36.5C29.4 38.8 31.3 40.6 33.5 40.6H37.6C37.6 41 37.5 41.5 37.5 41.9C37.5 43.4 37.8 44.9 38.5 46.2C38.1 46.2 37.7 46.3 37.4 46.3C34.2 46.6 30.9 46.9 26.6 44.4L25.6 43.9C25.6 43.8 25.6 43.7 25.6 43.6C25.5 42.8 25.1 42.1 24.4 41.7L20.3 39.5C19.2 38.9 17.9 39 17 39.8C10.5 45 6.8 54.3 8.3 61.9C8.5 62.9 9.2 63.7 10.1 64.1C11 64.5 13.3 65.4 13.3 65.4C13.6 65.5 13.9 65.6 14.2 65.6C14.7 65.6 15.1 65.5 15.5 65.2C15.6 65.1 15.8 65 15.9 64.9L23.5 68.8L25.8 71.3L25.7 71.5C24.5 73.6 25.2 76.3 27.3 77.5C28 77.9 28.8 78.1 29.6 78.1C28.9 80.1 29.7 82.3 31.6 83.3C33 84.1 34.7 84.1 36.1 83.3C36.5 84.2 37.1 85 38 85.5C39 86.1 40.2 86.2 41.3 85.9C41.8 85.8 42.2 85.6 42.6 85.3C43 86.1 43.6 86.9 44.4 87.4C45.1 87.8 45.8 88 46.6 88C48.1 88 49.6 87.2 50.4 85.8L50.5 85.7L51.5 86.2C52.5 86.8 53.4 87 54.2 87C55.8 87 57 86.1 57.7 85C58 84.4 58.2 83.7 58.2 83C58.4 83 58.7 83.1 59 83.1C59.4 83.1 59.7 83.1 60.1 83C61.2 82.7 62.1 82 62.7 81C63.2 80.2 63.4 79.2 63.2 78.3C63.6 78.3 64 78.3 64.4 78.1C65.6 77.8 66.5 77.1 67.1 76C67.6 75.1 67.8 74 67.6 73C68 73 68.3 72.9 68.7 72.8C69.8 72.5 70.8 71.8 71.4 70.7C71.8 70 72 69.1 72 68.3L80.1 64.6C80.3 64.8 80.4 64.9 80.6 65C81 65.3 81.4 65.4 81.9 65.4C82.2 65.4 82.5 65.3 82.8 65.2L86 63.8C86.9 63.4 87.6 62.6 87.8 61.6C89.2 54.3 85.5 45 78.9 39.8ZM50.8 22.6V24.4H45.2V22.6H50.8ZM42.1 11C42.1 10.6 42.4 10.2 42.9 10.2H53.1C53.5 10.2 53.9 10.6 53.9 11V12.6H42.1V11ZM38.3 38.4H33.6C32.6 38.4 31.7 37.5 31.7 36.5V24.2C32.3 24.5 33 24.6 33.7 24.6H43V24.7C43 25.8 43.9 26.6 44.9 26.6H51.1C52.2 26.6 53 25.7 53 24.7V24.6H62.3C63 24.6 63.7 24.4 64.3 24.2V36.5C64.3 37.5 63.5 38.4 62.4 38.4H57.7C56.3 34.4 52.4 31.6 48 31.6C43.5 31.6 39.7 34.4 38.3 38.4ZM52.2 40.2L47.1 45.3C46.9 45.5 46.6 45.6 46.3 45.6C46.3 45.6 46.2 45.6 46.1 45.6C45.8 45.6 45.5 45.4 45.3 45.1L43.6 42.1C43.3 41.6 43.5 40.9 44 40.6C44.5 40.3 45.2 40.5 45.5 41L46.5 42.7L50.5 38.7C50.9 38.3 51.6 38.3 52.1 38.7C52.6 39.1 52.6 39.8 52.2 40.2ZM31.4 74.8C30.8 75.8 29.5 76.2 28.4 75.6C27.4 75 27 73.7 27.6 72.6L30 68.5C30.3 68 30.8 67.6 31.3 67.5C31.9 67.3 32.4 67.4 32.9 67.7C33.4 68 33.8 68.5 33.9 69C34.1 69.6 34 70.2 33.7 70.6L31.4 74.8ZM36.1 79.8L35.6 80.7C35 81.7 33.7 82.1 32.6 81.5C31.6 80.9 31.2 79.6 31.8 78.5L33.3 76L35.7 71.9C36.1 71.2 36.8 70.8 37.6 70.8C38 70.8 38.3 70.9 38.7 71.1C39.2 71.4 39.6 71.9 39.7 72.4C39.8 72.9 39.8 73.6 39.5 74.1L36.1 79.8ZM42.8 81.4L42 82.8C41.7 83.3 41.2 83.7 40.7 83.8C40.1 84 39.5 83.9 39 83.6C38 83 37.6 81.7 38.2 80.6V80.5C38.2 80.5 38.2 80.5 38.2 80.4V80.3V80.2L41.2 75.1C41.8 74.1 43.1 73.7 44.2 74.3C45.2 74.9 45.6 76.2 45 77.3L44.8 77.7V77.8L42.8 81.4ZM50.8 80.6L48.4 84.7C47.8 85.7 46.5 86.1 45.4 85.5C44.4 84.9 44 83.6 44.6 82.5L47 78.4C47.3 77.9 47.8 77.5 48.3 77.4C48.9 77.3 49.5 77.3 49.9 77.6C51 78.2 51.4 79.6 50.8 80.6ZM69.3 69.8C69 70.3 68.5 70.7 68 70.8C67.4 71 66.8 70.9 66.3 70.6L65.3 70L63.8 69.1C63.3 68.8 62.6 69 62.3 69.5C62 70 62.2 70.7 62.7 71L64.2 71.9C65.3 72.5 65.6 73.9 65 74.9C64.7 75.4 64.2 75.8 63.7 75.9C63.1 76 62.5 76 62 75.7L61 75.1L59.5 74.2C59 73.9 58.3 74.1 58 74.6C57.7 75.1 57.9 75.8 58.4 76.1L59.9 77C60.4 77.3 60.7 77.7 60.8 78.2C60.9 78.7 60.9 79.3 60.6 79.7C60.3 80.2 59.9 80.5 59.4 80.6C58.9 80.7 58.3 80.7 57.9 80.4L56 79.5L55.7 79.3C55.2 79 54.5 79.2 54.2 79.7C53.9 80.2 54.1 80.9 54.6 81.2L54.9 81.4C56 82 56.1 83.1 55.6 83.8C55.1 84.6 54.1 85.1 52.4 84.2L51.5 83.7L52.7 81.7C53.9 79.6 53.2 76.9 51.1 75.7C50.1 75.1 48.9 75 47.8 75.3C47.7 75.3 47.6 75.3 47.6 75.4C47.4 74.2 46.6 73.1 45.5 72.5C44.4 71.9 43.1 71.8 41.9 72.1C41.9 72 41.9 71.9 41.8 71.9C41.5 70.8 40.8 69.8 39.7 69.2C38.6 68.5 37.3 68.4 36.1 68.8C36.1 68.7 36.1 68.6 36 68.6C35.7 67.5 35 66.5 33.9 65.9C32.9 65.3 31.7 65.2 30.6 65.5C29.5 65.8 28.5 66.5 27.9 67.5L27 69.3L25 67.2C25 67.1 24.8 67 24.7 67L16.6 62.8C16.8 56 19.5 50.4 24.6 45.9L25.6 46.4C29 48.3 31.8 48.7 34.3 48.7C35.5 48.7 36.6 48.6 37.6 48.5C38.4 48.4 39.1 48.4 39.9 48.4C40.7 49.3 41.6 50.1 42.6 50.8L36.5 54.6C35.5 55.2 34.9 56.2 34.8 57.3C34.7 58.5 35.3 59.8 36.3 60.6C39.9 63.6 43.2 61.9 46.1 60.5C48 59.6 49.9 58.7 52 58.6C54.3 58.6 56.2 59.7 58.2 60.8L68.4 66.7C69.1 67.2 69.3 67.6 69.5 68.1C69.7 68.8 69.6 69.3 69.3 69.8ZM71.2 66.4C70.9 65.9 70.5 65.5 69.8 64.9C69.8 64.9 69.7 64.9 69.7 64.8L59.4 59C57.2 57.8 55 56.5 52.1 56.5C49.5 56.5 47.2 57.6 45.2 58.6C42 60.1 40.1 60.9 37.8 59C37.3 58.6 37 58 37.1 57.6C37.1 57.2 37.3 56.9 37.8 56.6L45.2 52C46.1 52.3 47.1 52.4 48.1 52.4C51.8 52.4 55 50.5 56.8 47.6C57.5 47.7 58.2 47.8 58.8 48C60.2 48.5 61.7 48.7 63.1 48.7C65.3 48.7 67.4 48.2 69.4 47L71.4 45.9C76.5 50.3 79.2 55.9 79.4 62.6L71.2 66.4Z" fill="#254A96"/>
</svg>
