<svg width="100" height="100" viewBox="0 0 100 100" fill="none" xmlns="http://www.w3.org/2000/svg">
<path d="M50.0001 83.9C47.2001 83.9 44.5001 82.9 42.4001 81C32.4001 72.2 15.6001 54.7 15.6001 36.4C15.6001 17.5 31.0001 2.1 50.0001 2.1C69.0001 2.1 84.4001 17.5 84.4001 36.5C84.4001 54.7 67.6001 72.2 57.6001 81.1C55.5001 82.9 52.8001 83.9 50.0001 83.9ZM50.0001 9.7C35.2001 9.7 23.2001 21.7 23.2001 36.5C23.2001 52.3 40.1001 68.9 47.4001 75.3C48.1001 75.9 49.0001 76.3 50.0001 76.3C51.0001 76.3 51.8001 76 52.6001 75.3C59.9001 68.9 76.8001 52.3 76.8001 36.5C76.8001 21.7 64.8001 9.7 50.0001 9.7Z" fill="#254A96"/>
<path d="M50 99.9C39.4 99.9 29.4 98.6 21.9 96.4C18 95.2 14.9 93.8 12.6 92.2C8.8 89.5 8 86.6 8 84.6C8 82.5 8.9 79.4 13.2 76.6C15.8 74.9 19.3 73.5 23.7 72.3C25.7 71.8 27.8 73 28.4 75C28.9 77 27.7 79.1 25.7 79.7C18.2 81.7 16 84 15.8 84.6C16.1 85.2 18.2 87.4 25.3 89.3C32.1 91.2 40.9 92.2 50.2 92.2C59.5 92.2 68.4 91.2 75.1 89.3C82.2 87.3 84.3 85.2 84.6 84.6C84.3 84 82.1 81.7 74.7 79.7C72.7 79.2 71.4 77.1 72 75C72.5 73 74.6 71.7 76.7 72.3C81.1 73.5 84.6 74.9 87.2 76.6C91.5 79.4 92.4 82.5 92.4 84.6C92.4 86.6 91.6 89.5 87.8 92.2C85.5 93.8 82.4 95.2 78.5 96.4C70.6 98.7 60.6 99.9 50 99.9Z" fill="#254A96"/>
<path d="M50.0002 51.8C41.6002 51.8 34.7002 44.9 34.7002 36.5C34.7002 28.1 41.6002 21.2 50.0002 21.2C58.4002 21.2 65.3002 28 65.3002 36.5C65.3002 45 58.4002 51.8 50.0002 51.8ZM50.0002 28.8C45.8002 28.8 42.4002 32.2 42.4002 36.4C42.4002 40.6 45.8002 44 50.0002 44C54.2002 44 57.6002 40.6 57.6002 36.4C57.6002 32.3 54.2002 28.8 50.0002 28.8Z" fill="#254A96"/>
</svg>
