<svg width="100" height="100" viewBox="0 0 100 100" fill="none" xmlns="http://www.w3.org/2000/svg">
<path d="M78.695 64.977L71.311 66.254L69.018 73.389L61.643 72.064L57.047 77.986L50.568 74.217L44.227 78.209L39.428 72.453L32.104 74.033L29.561 66.984L22.137 65.967L22.16 58.471L15.533 54.975L18.117 47.939L13.084 42.386L17.92 36.661L15.09 29.722L21.592 25.995L21.305 18.507L28.689 17.228L30.982 10.093L38.359 11.418L42.953 5.495L49.432 9.264L55.775 5.271L60.574 11.028L67.898 9.446L70.439 16.497L77.865 17.517L77.842 25.009L84.471 28.507L81.885 35.54L86.918 41.095L82.082 46.82L84.912 53.76L78.41 57.488L78.695 64.977Z" fill="#B3CCFF"/>
<path d="M39.428 72.453L32.104 74.033L29.561 66.984L23.06 66.094L12.033 82.705L25.385 82.244L30.143 94.729L42.49 76.127L39.428 72.453ZM76.456 65.364L71.311 66.254L69.018 73.389L61.643 72.064L57.961 76.808L69.857 94.729L74.615 82.244L87.967 82.705L76.456 65.364Z" fill="#254A96"/>
<path d="M50 17.349C36.551 17.349 25.609 28.29 25.609 41.739C25.609 55.189 36.551 66.132 50 66.132C63.45 66.132 74.393 55.19 74.393 41.739C74.393 28.29 63.45 17.349 50 17.349Z" fill="white"/>
<path d="M65.528 28.957L63.271 27.26L48.174 43.476L38.365 37.453L36.584 39.595L50.205 55.362L65.528 28.957Z" fill="#254A96"/>
<path d="M50 68.932C35.007 68.932 22.809 56.733 22.809 41.739C22.809 26.747 35.007 14.55 50 14.55C64.994 14.55 77.193 26.747 77.193 41.739C77.193 56.732 64.994 68.932 50 68.932ZM50 17.349C36.551 17.349 25.609 28.29 25.609 41.739C25.609 55.189 36.551 66.132 50 66.132C63.45 66.132 74.393 55.19 74.393 41.739C74.393 28.29 63.45 17.349 50 17.349Z" fill="#254A96"/>
</svg>
