<svg width="800" height="800" viewBox="0 0 800 800" fill="none" xmlns="http://www.w3.org/2000/svg">
<path d="M626.333 149C603.972 150.278 581.541 148.483 559.667 143.667C533.281 134.632 508.603 121.222 486.667 104C467.9 90.6963 450.079 76.1056 433.333 60.3333C426.234 53.7019 416.881 50.0134 407.167 50.0134C397.452 50.0134 388.099 53.7019 381 60.3333C364.699 75.607 347.561 89.9624 329.667 103.333C307.593 120.782 282.824 134.518 256.333 144C231.418 149.63 205.823 151.65 180.333 150C159.462 149.136 138.653 147.133 118 144C112.953 143.252 107.807 143.528 102.869 144.811C97.9315 146.094 93.3026 148.359 89.2586 151.469C85.2147 154.58 81.8385 158.473 79.3316 162.917C76.8246 167.361 75.2381 172.263 74.6667 177.333C73 193.333 68.6667 235 66.6667 281.333C63.8639 327.625 66.7747 374.086 75.3334 419.667C99.4681 495.182 143.857 562.63 203.667 614.667C251.206 659.509 302.755 699.9 357.667 735.333C372.383 745.438 389.815 750.846 407.667 750.846C425.518 750.846 442.95 745.438 457.667 735.333C509.666 698.976 558.305 658.035 603 613C659.309 560.582 701.008 494.414 724 421" stroke="#254A96" stroke-width="50" stroke-linecap="round" stroke-linejoin="round"/>
<path d="M366.667 366.667L462 462C462.593 462.647 463.314 463.163 464.118 463.516C464.921 463.869 465.789 464.052 466.667 464.052C467.544 464.052 468.412 463.869 469.216 463.516C470.019 463.163 470.74 462.647 471.333 462L733.333 200" stroke="#254A96" stroke-width="50" stroke-linecap="round" stroke-linejoin="round"/>
</svg>
